<svg height="512pt" viewBox="-2 0 512 512" width="512pt" xmlns="http://www.w3.org/2000/svg"><path d="m286.671875 195.484375h201.277344c11.257812 0 20.421875-9.160156 20.421875-20.421875v-.417969c0-7.238281-3.800782-13.597656-9.5-17.222656v-17.714844c0-38.132812-19.222656-73.148437-51.421875-93.671875-3.511719-2.234375-8.171875-1.203125-10.410157 2.308594-2.238281 3.511719-1.207031 8.171875 2.304688 10.410156 27.832031 17.738282 44.445312 48 44.445312 80.953125v14.519531h-192.957031v-14.519531c0-63.523437 60.96875-109.839843 123.101563-92.339843 4.007812 1.128906 8.171875-1.207032 9.300781-5.214844 1.128906-4.007813-1.203125-8.171875-5.214844-9.300782-7.539062-2.125-15.308593-3.433593-23.167969-3.921874v-13.847657h18.035157c4.164062 0 7.539062-3.375 7.539062-7.542969 0-4.164062-3.375-7.539062-7.539062-7.539062h-51.152344c-4.164063 0-7.539063 3.375-7.539063 7.539062 0 4.167969 3.375 7.542969 7.539063 7.542969h18.035156v13.847657c-57.964843 3.617187-104.019531 51.917968-104.019531 110.777343v17.714844c-5.699219 3.625-9.5 9.984375-9.5 17.222656v.417969c0 11.257812 9.164062 20.421875 20.421875 20.421875zm-5.339844-20.839844c0-2.941406 2.394531-5.335937 5.339844-5.335937h201.277344c2.945312 0 5.339843 2.394531 5.339843 5.335937v.417969c0 2.945312-2.394531 5.339844-5.339843 5.339844h-201.277344c-2.945313 0-5.339844-2.394532-5.339844-5.339844zm0 0"/><path d="m171.886719 220.992188c0-18.203126-7.339844-35.523438-19.851563-48.265626-2.914062-2.96875-7.6875-3.015624-10.660156-.097656-2.972656 2.917969-3.015625 7.691406-.097656 10.664063 9.523437 9.691406 15.527344 23.15625 15.527344 37.699219 0 54.304687-71.367188 74.175781-99.59375 28.277343-26.042969-42.351562 14.578124-94.042969 61.730468-79.558593 3.976563 1.21875 8.199219-1.015626 9.421875-4.996094 1.222657-3.980469-1.011719-8.199219-4.996093-9.421875-18.453126-5.664063-39.023438-3.53125-56.417969 7.164062-33.199219 20.417969-42.011719 63.117188-22.582031 94.710938 35.96875 58.496093 127.519531 33.613281 127.519531-36.175781zm0 0"/><path d="m125.238281 402.816406 66.242188-129.425781c40.59375-68.136719-8.550781-155.40625-88.476563-155.40625-80.074218 0-128.984375 87.410156-88.476562 155.40625l66.246094 129.425781c9.3125 18.1875 35.28125 18.0625 44.464843 0zm-22.234375-269.75c31.972656 0 60.480469 16.621094 76.261719 44.46875 26.835937 47.359375-.902344 88.25-.984375 88.542969l-66.476562 129.882813c-3.628907 7.132812-13.914063 7.199218-17.609376-.015626 0 0 0 0 0-.003906 0 0 0 0-.003906 0 0-.003906-.003906-.007812-.007812-.015625h.003906c-.003906 0-.003906 0-.003906-.003906v.003906s0-.003906-.003906-.007812c0-.003907-.003907-.007813-.007813-.011719 0-.003906 0-.007812-.003906-.007812-.011719-.03125-.035157-.070313-.066407-.132813 0 0 0 0 0-.003906-.003906-.003907-.007812-.011719-.007812-.015625-.003906-.007813-.007812-.015625-.011719-.019532-.972656-1.898437-9.308593-18.1875-66.484375-129.863281-34.734375-57.992187 7.019532-132.796875 75.40625-132.796875zm0 0"/><path d="m473.910156 275.234375h-63.976562v-44.722656c0-12.472657-10.148438-22.621094-22.625-22.621094-12.472656 0-22.621094 10.148437-22.621094 22.621094v54.953125c0 19.304687 15.707031 35.011718 35.011719 35.011718h19.242187c4.164063 0 7.539063-3.375 7.539063-7.539062 0-4.167969-3.375-7.542969-7.539063-7.542969h-19.242187c-10.988281 0-19.929688-8.941406-19.929688-19.929687v-54.953125c0-4.160157 3.382813-7.539063 7.539063-7.539063 4.160156 0 7.542968 3.378906 7.542968 7.539063v52.261719c0 4.167968 3.375 7.542968 7.539063 7.542968h71.519531c10.988282 0 19.929688 8.9375 19.929688 19.929688v82.628906c0 10.988281-8.941406 19.929688-19.929688 19.929688h-199.109375c-4.164062 0-7.539062 3.375-7.539062 7.539062v56.644531c0 10.992188-8.941407 19.929688-19.929688 19.929688h-131.910156c-10.988281 0-19.929687-8.941407-19.929687-19.929688v-29.871093c0-4.160157 3.382812-7.539063 7.539062-7.539063 4.160156 0 7.542969 3.378906 7.542969 7.539063v27.179687c0 4.167969 3.375 7.542969 7.539062 7.542969h126.527344c4.164063 0 7.539063-3.375 7.539063-7.542969v-56.644531c0-10.988282 8.941406-19.929688 19.929687-19.929688h199.109375c4.164062 0 7.539062-3.375 7.539062-7.539062v-77.246094c0-4.167969-3.375-7.542969-7.539062-7.542969h-22.117188c-4.164062 0-7.539062 3.375-7.539062 7.542969 0 4.164062 3.375 7.539062 7.539062 7.539062h14.578126v62.167969h-191.570313c-19.300781 0-35.007813 15.703125-35.007813 35.007813v49.105468h-111.445312v-19.640624c0-12.472657-10.148438-22.621094-22.625-22.621094-12.472656 0-22.621094 10.148437-22.621094 22.621094v29.871093c0 19.304688 15.707032 35.011719 35.011719 35.011719h131.910156c19.304688 0 35.011719-15.707031 35.011719-35.011719v-49.101562h191.566406c19.304688 0 35.007813-15.707031 35.007813-35.011719v-82.628906c.003906-19.304688-15.703125-35.011719-35.007813-35.011719zm0 0"/></svg>