<?xml version="1.0" encoding="UTF-8"?>
<svg width="512px" height="512px" viewBox="0 0 512 512" version="1.1" xmlns="http://www.w3.org/2000/svg" xmlns:xlink="http://www.w3.org/1999/xlink">
    <title>Path</title>
    <g id="Page-1" stroke="none" stroke-width="1" fill="none" fill-rule="evenodd">
        <g id="facebook" fill="#E8E8E8" fill-rule="nonzero">
            <path d="M492,352 C503.046875,352 512,343.046875 512,332 L512,80 C512,35.886719 476.113281,0 432,0 L80,0 C35.886719,0 0,35.886719 0,80 L0,432 C0,476.113281 35.886719,512 80,512 L432,512 C476.113281,512 512,476.113281 512,432 C512,420.953125 503.046875,412 492,412 C480.953125,412 472,420.953125 472,432 C472,454.054688 454.054688,472 432,472 L334,472 L334,326 L380.289062,326 C390.410156,326 398.9375,318.4375 400.148438,308.390625 L402.796875,286.390625 C404.226562,274.484375 394.933594,264 382.9375,264 L334,264 L334,197 C334,180.429688 347.429688,167 364,167 L389,167 C400.046875,167 409,158.046875 409,147 L409,126.769531 C409,116.523438 401.261719,107.914062 391.066406,106.875 C380.925781,105.84375 370.195312,105 364,105 C340.675781,105 317.296875,114.839844 299.859375,131.992188 C281.894531,149.664062 272,172.8125 272,197.175781 L272,264 L227,264 C215.953125,264 207,272.953125 207,284 L207,306 C207,317.046875 215.953125,326 227,326 L272,326 L272,472 L80,472 C57.945312,472 40,454.054688 40,432 L40,80 C40,57.945312 57.945312,40 80,40 L432,40 C454.054688,40 472,57.945312 472,80 L472,332 C472,343.046875 480.953125,352 492,352 Z" id="Path"></path>
        </g>
    </g>
</svg>