<?xml version="1.0" encoding="UTF-8"?>
<svg width="512px" height="512px" viewBox="0 0 512 512" version="1.1" xmlns="http://www.w3.org/2000/svg" xmlns:xlink="http://www.w3.org/1999/xlink">
    <title>instagram</title>
    <g id="Page-1" stroke="none" stroke-width="1" fill="none" fill-rule="evenodd">
        <g id="instagram" fill="#E8E8E8" fill-rule="nonzero">
            <path d="M261.039062,512 C259.34375,512 257.648438,512 255.941406,511.992188 C215.808594,512.089844 178.726562,511.070312 142.664062,508.875 C109.601562,506.863281 79.421875,495.4375 55.382812,475.835938 C32.1875,456.921875 16.347656,431.347656 8.304688,399.832031 C1.304688,372.394531 0.933594,345.460938 0.578125,319.410156 C0.320312,300.71875 0.0546875,278.570312 -8.8817842e-16,256.046875 C0.0546875,233.429688 0.320312,211.28125 0.578125,192.589844 C0.933594,166.542969 1.304688,139.609375 8.304688,112.167969 C16.347656,80.652344 32.1875,55.078125 55.382812,36.164062 C79.421875,16.5625 109.601562,5.136719 142.667969,3.125 C178.730469,0.933594 215.820312,-0.0898438 256.039062,0.0078125 C296.183594,-0.078125 333.253906,0.933594 369.316406,3.125 C402.378906,5.136719 432.558594,16.5625 456.597656,36.164062 C479.796875,55.078125 495.632812,80.652344 503.675781,112.167969 C510.675781,139.605469 511.046875,166.542969 511.402344,192.589844 C511.660156,211.28125 511.929688,233.429688 511.980469,255.953125 C511.929688,278.570312 511.660156,300.71875 511.402344,319.410156 C511.253906,330.457031 502.128906,339.285156 491.132812,339.136719 C480.085938,338.984375 471.257812,329.90625 471.40625,318.863281 C471.660156,300.28125 471.929688,278.277344 471.980469,255.953125 C471.929688,233.722656 471.660156,211.71875 471.40625,193.136719 C471.082031,169.421875 470.746094,144.898438 464.917969,122.058594 C459.039062,99.019531 447.734375,80.550781 431.320312,67.164062 C413.566406,52.683594 391.886719,44.570312 366.886719,43.050781 C331.671875,40.910156 295.421875,39.921875 256.039062,40.003906 C216.5625,39.910156 180.308594,40.910156 145.09375,43.050781 C120.09375,44.570312 98.417969,52.683594 80.660156,67.160156 C64.246094,80.546875 52.941406,99.015625 47.0625,122.058594 C41.234375,144.898438 40.898438,169.421875 40.574219,193.136719 C40.320312,211.71875 40.054688,233.722656 40,256.046875 C40.054688,278.277344 40.320312,300.28125 40.574219,318.863281 C40.898438,342.578125 41.234375,367.101562 47.0625,389.941406 C52.941406,412.980469 64.246094,431.449219 80.660156,444.835938 C98.417969,459.316406 120.09375,467.429688 145.09375,468.949219 C180.308594,471.089844 216.570312,472.089844 255.945312,471.992188 C295.425781,472.085938 331.671875,471.089844 366.886719,468.949219 C391.886719,467.429688 413.5625,459.316406 431.320312,444.835938 C443.144531,435.191406 452.382812,422.816406 458.777344,408.050781 C463.167969,397.917969 474.941406,393.257812 485.078125,397.648438 C495.214844,402.039062 499.871094,413.8125 495.484375,423.949219 C486.519531,444.648438 473.4375,462.105469 456.597656,475.835938 C432.558594,495.441406 402.378906,506.863281 369.316406,508.875 C334.78125,510.976562 299.304688,512 261.039062,512 L261.039062,512 Z M379.988281,256 C379.988281,187.074219 323.914062,131 254.988281,131 C186.066406,131 129.988281,187.074219 129.988281,256 C129.988281,324.925781 186.066406,381 254.988281,381 C323.914062,381 379.988281,324.925781 379.988281,256 Z M339.988281,256 C339.988281,302.867188 301.859375,341 254.988281,341 C208.121094,341 169.988281,302.867188 169.988281,256 C169.988281,209.132812 208.121094,171 254.988281,171 C301.859375,171 339.988281,209.132812 339.988281,256 Z M393.988281,91 C377.421875,91 363.988281,104.429688 363.988281,121 C363.988281,137.570312 377.421875,151 393.988281,151 C410.558594,151 423.988281,137.570312 423.988281,121 C423.988281,104.429688 410.558594,91 393.988281,91 Z" id="Shape"></path>
        </g>
    </g>
</svg>