<svg id="Layer_1" enable-background="new 0 0 513 513" height="512" viewBox="0 0 513 513" width="512" xmlns="http://www.w3.org/2000/svg"><g><path d="m486.065 142.181c-1.854-3.703-6.363-5.2-10.064-3.347-3.704 1.855-5.202 6.361-3.348 10.065 2.717 5.424 5.194 10.924 7.477 16.481l-48.623 26.291c-8.336 4.528-18.137 5.017-26.882 1.34-8.724-3.666-15.212-10.979-17.8-20.062l-17.16-60.235c-6.197-21.761-27.046-35.667-49.549-33.077l-33.563 3.868c-14.168 1.631-27.57-6.524-32.597-19.835-.013-.034-.026-.068-.04-.102l-18.593-47.144c7.003-.603 14.064-.926 21.176-.926 79.723 0 154.256 39.238 199.375 104.962 2.345 3.416 7.012 4.283 10.429 1.938 3.414-2.344 4.282-7.013 1.938-10.428-47.918-69.798-127.073-111.47-211.741-111.47-68.511 0-132.922 26.627-181.367 74.976-48.45 48.352-75.133 112.641-75.133 181.024 0 4.142 3.357 7.5 7.5 7.5s7.5-3.358 7.5-7.5c0-10.276.647-20.452 1.908-30.486l46.586 21.169c14.596 6.632 24.979 19.392 28.49 35.005 3.505 15.589-.408 31.533-10.735 43.743-4.117 4.867-5.722 11.235-4.404 17.469 1.32 6.24 5.37 11.417 11.113 14.206l22.818 11.076c14.582 7.079 24.669 20.257 27.674 36.156 3.001 15.876-1.568 31.799-12.537 43.686l-6.131 6.644c-7.7-5.28-15.124-11.018-22.219-17.212-43.567-38.035-72.029-90.306-80.142-147.185-.584-4.101-4.391-6.951-8.483-6.366-4.101.585-6.951 4.383-6.366 8.484 8.619 60.436 38.852 115.968 85.126 156.367 46.717 40.784 106.665 63.244 168.802 63.244 68.511 0 132.922-26.627 181.367-74.976 48.45-48.352 75.133-112.641 75.133-181.024 0-40.174-9.062-78.637-26.935-114.319zm-353.457 321.206 4.329-4.691c14.221-15.41 20.145-36.056 16.253-56.644-3.896-20.611-16.967-37.692-35.862-46.864l-22.818-11.076c-2.115-1.027-2.78-2.831-2.988-3.815-.207-.98-.329-2.893 1.182-4.679 13.389-15.831 18.461-36.504 13.917-56.72-4.55-20.24-18.007-36.777-36.92-45.372l-50.346-22.877c9.004-46.902 31.792-90.043 66.376-124.556 36.872-36.798 83.569-60.224 134.187-67.854l20.029 50.787c7.477 19.721 27.339 31.804 48.326 29.382l33.563-3.868c15.188-1.746 29.23 7.623 33.406 22.285l17.16 60.236c3.843 13.486 13.47 24.34 26.414 29.78 5.764 2.422 11.833 3.625 17.884 3.624 7.563 0 15.098-1.88 21.957-5.605l46.789-25.3c8.33 24.617 12.554 50.377 12.554 76.94 0 40.598-10.001 79.658-28.823 114.395l-67.324 39.339c-12.08 7.058-27.548 5.946-38.489-2.766-12.594-10.028-29.322-13.25-44.749-8.616-15.402 4.626-27.565 16.505-32.537 31.776l-21.723 66.732c-2.612.083-5.229.14-7.855.14-43.928 0-86.692-11.921-123.892-34.113zm294.663-36.48c-39.918 39.838-91.35 64.012-146.808 69.429l19.878-61.064c3.501-10.755 11.734-18.794 22.588-22.054 10.879-3.266 22.21-1.087 31.091 5.984 15.75 12.542 38.015 14.142 55.4 3.983l42.26-24.693c-7.33 9.989-15.469 19.494-24.409 28.415z"/><path d="m199.116 231.538c3.503 2.206 8.135 1.152 10.342-2.354l34.677-55.124c3.723-5.919 10.12-9.453 17.113-9.453s13.391 3.534 17.113 9.453l23.311 37.057-15.075-5.222c-3.919-1.357-8.187.718-9.542 4.632s.718 8.186 4.632 9.542l35.244 12.209c4.374 1.626 9.505-1.613 9.91-6.267l4.459-40.522c.453-4.117-2.518-7.822-6.635-8.275-4.137-.454-7.822 2.518-8.275 6.635l-2.107 19.145-23.225-36.92c-6.486-10.31-17.63-16.465-29.811-16.465s-23.324 6.155-29.811 16.465l-34.677 55.124c-2.203 3.504-1.15 8.134 2.357 10.34z"/><path d="m216.673 323.76h-30.024c-7.476 0-14.095-3.908-17.705-10.455s-3.384-14.23.605-20.553l13.326-21.121 2.074 16.284c.482 3.787 3.71 6.553 7.43 6.553.316 0 .636-.02.957-.061 4.109-.523 7.016-4.279 6.492-8.388l-4.711-36.985c-.473-4.649-5.667-7.817-10.016-6.111l-38.287 14c-3.891 1.422-5.892 5.729-4.469 9.62 1.424 3.89 5.729 5.891 9.619 4.468l17.635-6.448-12.735 20.184c-6.949 11.014-7.344 24.396-1.055 35.8 6.288 11.403 17.817 18.211 30.84 18.211h30.024c4.143 0 7.5-3.358 7.5-7.5s-3.358-7.498-7.5-7.498z"/><path d="m277.009 361.755c1.382 1.103 3.033 1.639 4.674 1.639 2.203 0 4.386-.966 5.867-2.822 2.583-3.238 2.054-7.957-1.184-10.541l-14.123-11.271h63.604c13.022 0 24.552-6.808 30.84-18.211s5.895-24.786-1.055-35.8l-24.47-38.782c-2.21-3.503-6.844-4.552-10.345-2.341-3.503 2.21-4.552 6.842-2.341 10.345l24.47 38.782c3.989 6.323 4.216 14.006.605 20.553-3.61 6.546-10.229 10.455-17.705 10.455h-63.714l13.416-10.778c3.229-2.594 3.744-7.315 1.149-10.544-2.593-3.228-7.313-3.745-10.544-1.149l-30.029 24.125c-3.697 2.83-3.687 8.891.019 11.708z"/></g></svg>