<?xml version="1.0" encoding="UTF-8"?>
<svg width="512px" height="508px" viewBox="0 0 512 508" version="1.1" xmlns="http://www.w3.org/2000/svg" xmlns:xlink="http://www.w3.org/1999/xlink">
    <title>Shape</title>
    <g id="Page-1" stroke="none" stroke-width="1" fill="none" fill-rule="evenodd">
        <g id="whatsapp" fill="#E8E8E8" fill-rule="nonzero">
            <path d="M255.996094,507.949219 L255.894531,507.949219 C215.949219,507.933594 176.34375,498.503906 140.851562,480.613281 L31.445312,505.5 C24.769531,507.015625 17.777344,505.011719 12.917969,500.1875 C8.058594,495.363281 6.007812,488.386719 7.476562,481.699219 L31.183594,373.941406 C10.816406,336.328125 0.0625,295.132812 0,254.285156 C0,254.144531 0,254.003906 0,253.867188 C0.0273438,186.175781 26.796875,122.425781 75.371094,74.363281 C123.835938,26.410156 187.980469,-2.84217094e-14 255.992188,-2.84217094e-14 C324.15625,0.0273438 388.199219,26.460938 436.34375,74.425781 C485.15625,123.058594 512.023438,186.859375 512.000015,254.070312 C511.980469,304.863281 496.75,353.953125 467.957031,396.027344 C461.71875,405.144531 449.273438,407.476562 440.15625,401.238281 C431.042969,395 428.707031,382.554688 434.945312,373.4375 C459.167969,338.039062 471.980469,296.757812 472,254.054688 C472.019531,197.558594 449.332031,143.828125 408.113281,102.761719 C367.515625,62.3125 313.488281,40.023438 255.984375,40 C137.066406,40 40.25,135.742188 40,253.507812 C40,253.636719 40.003906,253.761719 40.003906,253.886719 C39.988281,290.339844 50.242188,327.300781 69.652344,360.773438 C72.164062,365.105469 72.960938,370.21875 71.882812,375.105469 L53.316406,459.5 L139.15625,439.972656 C143.894531,438.898438 148.863281,439.582031 153.136719,441.898438 C184.5,458.925781 220.035156,467.933594 255.902344,467.949219 L255.992188,467.949219 C294.996094,467.949219 333.300781,457.402344 366.761719,437.453125 C376.246094,431.792969 388.523438,434.898438 394.179688,444.386719 C399.835938,453.875 396.734375,466.148438 387.246094,471.808594 C347.59375,495.449219 302.207031,507.949219 255.992188,507.949219 L255.996094,507.949219 Z M199.511719,152.21875 C195.125,142.5 190.507812,142.167969 186.335938,142 L175.113281,142 C171.207031,142 164.863281,143.460938 159.5,149.300781 C154.132812,155.140625 139.003906,169.257812 139.003906,197.972656 C139.003906,226.6875 159.988281,254.4375 162.914062,258.335938 C165.84375,262.226562 203.425781,323.035156 262.941406,346.429688 C312.40625,365.871094 322.472656,362.003906 333.207031,361.027344 C343.945312,360.058594 367.855469,346.914062 372.730469,333.285156 C377.613281,319.660156 377.613281,307.980469 376.148438,305.539062 C374.6875,303.109375 370.78125,301.648438 364.925781,298.730469 C359.066406,295.8125 330.367188,281.449219 325,279.503906 C319.632812,277.558594 315.730469,276.585938 311.824219,282.429688 C307.917969,288.265625 296.417969,301.761719 293,305.652344 C289.585938,309.554688 286.167969,310.039062 280.3125,307.121094 C274.457031,304.191406 255.789062,297.921875 233.417969,278.042969 C216.007812,262.570312 203.929688,242.84375 200.511719,237 C197.09375,231.164062 200.144531,228 203.082031,225.089844 C205.710938,222.476562 209.269531,218.902344 212.199219,215.496094 C215.121094,212.089844 215.957031,209.65625 217.90625,205.761719 C219.859375,201.867188 218.882812,198.460938 217.421875,195.539062 C215.957031,192.621094 204.714844,163.757812 199.507812,152.21875" id="Shape"></path>
        </g>
    </g>
</svg>